<?xml version="1.0" encoding="utf-8"?>
<!-- Generator: Adobe Illustrator 16.0.0, SVG Export Plug-In . SVG Version: 6.00 Build 0)  -->
<!DOCTYPE svg PUBLIC "-//W3C//DTD SVG 1.1//EN" "http://www.w3.org/Graphics/SVG/1.1/DTD/svg11.dtd">
<svg version="1.1" id="Layer_1" xmlns="http://www.w3.org/2000/svg" xmlns:xlink="http://www.w3.org/1999/xlink" x="0px" y="0px"
	 width="841.89px" height="595.28px" viewBox="0 0 841.89 595.28" enable-background="new 0 0 841.89 595.28" xml:space="preserve">
<g>
	<g>
		<path fill="#194C76" d="M167.403,253.676h28.072v97.501c0,15.521-1.233,26.407-3.697,32.668
			c-2.465,6.259-6.527,11.238-12.188,14.935c-5.662,3.698-12.454,5.548-20.379,5.548c-16.183,0-29.97-7.096-41.36-21.281
			l20.181-18.881c4.461,5.06,8.258,8.459,11.389,10.188c3.13,1.734,6.16,2.601,9.09,2.601c2.998,0,5.228-1.266,6.694-3.799
			c1.465-2.529,2.198-8.091,2.198-16.683V253.676z"/>
		<path fill="#194C76" d="M228.044,253.676h28.072v95.026c0,8.188,0.714,13.976,2.146,17.371c1.433,3.392,3.797,6.106,7.094,8.134
			c3.297,2.029,7.275,3.045,11.938,3.045c4.928,0,9.172-1.13,12.737-3.394c3.562-2.264,6.027-5.143,7.392-8.633
			c1.365-3.497,2.049-10.166,2.049-20.015v-91.535h28.071v87.613c0,14.783-0.833,25.039-2.498,30.767
			c-1.667,5.729-4.845,11.257-9.541,16.583c-4.693,5.33-10.106,9.275-16.233,11.84c-6.127,2.563-13.254,3.849-21.379,3.849
			c-10.656,0-19.93-2.45-27.822-7.346c-7.892-4.896-13.536-11.021-16.933-18.381c-3.397-7.359-5.094-19.796-5.094-37.312V253.676z"
			/>
		<path fill="#194C76" d="M359.911,253.676h29.67c16.05,0,27.625,1.481,34.716,4.445c7.092,2.962,12.688,7.758,16.783,14.385
			c4.095,6.629,6.143,14.57,6.143,23.826c0,10.259-2.682,18.78-8.042,25.572c-5.36,6.795-12.636,11.524-21.827,14.188
			c-5.395,1.534-15.219,2.3-29.472,2.3v62.236h-27.972V253.676z M387.883,311.117h8.892c6.994,0,11.855-0.5,14.587-1.504
			c2.729-1.002,4.877-2.653,6.442-4.959c1.564-2.308,2.349-5.098,2.349-8.37c0-5.68-2.199-9.823-6.594-12.43
			c-3.198-1.937-9.125-2.905-17.783-2.905h-7.893V311.117z"/>
		<path fill="#194C76" d="M472.6,253.676h27.773v146.952H472.6V253.676z"/>
		<path fill="#194C76" d="M517.354,253.676h81.222v27.572H571.8v119.38h-28.371v-119.38h-26.075V253.676z"/>
		<path fill="#194C76" d="M617.855,253.676h80.219v27.373h-52.446v26.572h52.446v26.874h-52.446v38.661h52.446v27.473h-80.219
			V253.676z"/>
		<path fill="#194C76" d="M726.046,253.676h29.637c16.23,0,27.788,1.447,34.676,4.345c6.885,2.897,12.422,7.708,16.613,14.437
			c4.189,6.726,6.289,14.684,6.289,23.875c0,9.656-2.315,17.731-6.942,24.227c-4.63,6.492-11.606,11.404-20.928,14.735
			l34.813,65.334h-30.58l-33.044-62.236h-2.56v62.236h-27.975V253.676z M754.021,311.117h8.764c8.894,0,15.02-1.168,18.374-3.508
			c3.353-2.338,5.03-6.213,5.03-11.627c0-3.206-0.831-5.995-2.492-8.367c-1.659-2.374-3.884-4.078-6.672-5.114
			c-2.788-1.035-7.899-1.552-15.336-1.552h-7.668V311.117z"/>
	</g>
	<g>
		<path fill="#706F6F" d="M117.644,476.17v-54.786h8.614c4.998,0,8.654,0.317,10.969,0.972c3.277,0.864,5.89,2.479,7.831,4.837
			c1.935,2.358,2.903,5.144,2.903,8.344c0,2.085-0.44,3.98-1.32,5.675c-0.883,1.707-2.317,3.303-4.298,4.787
			c3.323,1.572,5.758,3.525,7.299,5.868c1.538,2.352,2.305,5.125,2.305,8.33c0,3.078-0.794,5.879-2.382,8.414
			c-1.594,2.534-3.643,4.426-6.15,5.68c-2.515,1.259-5.984,1.88-10.41,1.88H117.644z M128.073,431.327v11.544h2.284
			c2.542,0,4.43-0.527,5.662-1.6c1.233-1.067,1.851-2.519,1.851-4.358c0-1.717-0.59-3.069-1.758-4.077
			c-1.171-1.003-2.953-1.509-5.344-1.509H128.073z M128.073,452.187v14.041h2.617c4.327,0,7.25-0.546,8.754-1.638
			c1.511-1.095,2.263-2.682,2.263-4.767c0-2.362-0.886-4.226-2.655-5.59c-1.764-1.365-4.702-2.047-8.809-2.047H128.073z"/>
		<path fill="#706F6F" d="M174.804,421.384h11.052c6.053,0,10.367,0.536,12.931,1.619c2.568,1.079,4.634,2.875,6.196,5.379
			c1.56,2.512,2.34,5.479,2.34,8.905c0,3.598-0.858,6.615-2.586,9.035c-1.725,2.419-4.328,4.251-7.803,5.492l12.981,24.355h-11.401
			l-12.322-23.2h-0.954v23.2h-10.434V421.384z M185.238,442.801h3.269c3.317,0,5.597-0.439,6.848-1.307
			c1.251-0.871,1.879-2.321,1.879-4.339c0-1.192-0.312-2.232-0.93-3.119c-0.619-0.883-1.45-1.521-2.486-1.903
			c-1.041-0.389-2.948-0.583-5.721-0.583h-2.858V442.801z"/>
		<path fill="#706F6F" d="M256.425,420.002c7.751,0,14.419,2.809,19.999,8.414c5.577,5.611,8.365,12.46,8.365,20.525
			c0,8.002-2.75,14.769-8.252,20.302c-5.506,5.539-12.184,8.308-20.034,8.308c-8.227,0-15.061-2.841-20.501-8.525
			c-5.439-5.688-8.162-12.445-8.162-20.268c0-5.239,1.263-10.059,3.797-14.454c2.536-4.393,6.022-7.873,10.457-10.446
			C246.53,421.286,251.306,420.002,256.425,420.002z M256.314,430.21c-5.072,0-9.333,1.766-12.792,5.29
			c-3.458,3.525-5.18,8.007-5.18,13.441c0,6.063,2.172,10.855,6.525,14.376c3.381,2.758,7.26,4.138,11.634,4.138
			c4.942,0,9.158-1.784,12.64-5.363c3.479-3.576,5.22-7.979,5.22-13.221c0-5.214-1.755-9.627-5.261-13.241
			C265.601,432.017,261.335,430.21,256.314,430.21z"/>
		<path fill="#706F6F" d="M323.544,421.384h10.578l21.074,54.786h-10.838l-4.286-11.281h-22.357l-4.457,11.281h-10.841
			L323.544,421.384z M328.9,435.91l-7.352,18.806h14.658L328.9,435.91z"/>
		<path fill="#706F6F" d="M375.504,421.384h12.353c7.966,0,13.885,0.983,17.755,2.963c3.867,1.969,7.061,5.181,9.564,9.628
			c2.506,4.44,3.758,9.636,3.758,15.568c0,4.218-0.701,8.099-2.102,11.645c-1.4,3.534-3.334,6.473-5.807,8.806
			c-2.468,2.335-5.14,3.947-8.018,4.84c-2.875,0.892-7.864,1.337-14.959,1.337h-12.544V421.384z M385.857,431.438v34.566h4.84
			c4.769,0,8.226-0.547,10.379-1.643c2.148-1.094,3.901-2.932,5.272-5.516c1.366-2.584,2.046-5.766,2.046-9.544
			c0-5.82-1.627-10.33-4.882-13.539c-2.929-2.883-7.631-4.325-14.113-4.325H385.857z"/>
		<path fill="#706F6F" d="M491.448,431.014l-7.299,6.953c-4.958-5.25-10.544-7.865-16.739-7.865c-5.244,0-9.651,1.788-13.232,5.367
			c-3.591,3.585-5.384,7.988-5.384,13.236c0,3.654,0.798,6.893,2.389,9.736c1.587,2.83,3.829,5.05,6.728,6.67
			c2.901,1.611,6.137,2.422,9.684,2.422c3.021,0,5.792-0.569,8.299-1.694c2.506-1.132,5.258-3.188,8.257-6.176l7.072,7.377
			c-4.047,3.953-7.871,6.694-11.47,8.224c-3.604,1.521-7.712,2.287-12.327,2.287c-8.522,0-15.491-2.7-20.92-8.098
			c-5.425-5.403-8.135-12.327-8.135-20.767c0-5.459,1.233-10.317,3.708-14.563c2.463-4.252,6.003-7.663,10.611-10.243
			c4.604-2.589,9.569-3.879,14.879-3.879c4.52,0,8.874,0.96,13.058,2.86C484.813,424.775,488.418,427.488,491.448,431.014z"/>
		<path fill="#706F6F" d="M529.483,421.384h10.585l21.079,54.786h-10.851l-4.277-11.281h-22.36l-4.46,11.281h-10.832
			L529.483,421.384z M534.846,435.91l-7.354,18.806h14.666L534.846,435.91z"/>
		<path fill="#706F6F" d="M610.174,428.833l-7.726,6.815c-2.711-3.778-5.479-5.666-8.286-5.666c-1.372,0-2.488,0.367-3.363,1.103
			c-0.866,0.731-1.298,1.561-1.298,2.479c0,0.916,0.31,1.783,0.932,2.605c0.848,1.095,3.39,3.438,7.646,7.036
			c3.982,3.327,6.398,5.43,7.243,6.298c2.112,2.136,3.605,4.178,4.493,6.128c0.889,1.95,1.324,4.077,1.324,6.394
			c0,4.49-1.553,8.198-4.665,11.133c-3.104,2.927-7.159,4.393-12.151,4.393c-3.904,0-7.3-0.951-10.194-2.866
			c-2.898-1.915-5.378-4.92-7.447-9.014l8.762-5.295c2.64,4.847,5.676,7.268,9.107,7.268c1.792,0,3.302-0.521,4.519-1.568
			c1.223-1.038,1.826-2.245,1.826-3.608c0-1.245-0.458-2.484-1.376-3.729c-0.925-1.238-2.959-3.141-6.093-5.697
			c-5.964-4.862-9.82-8.622-11.563-11.27c-1.747-2.639-2.606-5.283-2.606-7.911c0-3.8,1.439-7.063,4.342-9.778
			c2.894-2.718,6.464-4.08,10.724-4.08c2.738,0,5.345,0.634,7.815,1.9C604.614,423.17,607.283,425.48,610.174,428.833z"/>
		<path fill="#706F6F" d="M627.887,421.384h30.286v10.277h-9.989v44.509h-10.569v-44.509h-9.728V421.384z"/>
		<path fill="#706F6F" d="M676.79,421.384h10.341v54.786H676.79V421.384z"/>
		<path fill="#706F6F" d="M711.112,421.384h10.007l23.445,36.055v-36.055h10.425v54.786H744.96l-23.418-35.941v35.941h-10.43
			V421.384z"/>
		<path fill="#706F6F" d="M830.299,430.319l-7.351,7.265c-4.645-4.918-10.068-7.374-16.253-7.374c-5.393,0-9.91,1.786-13.553,5.362
			c-3.635,3.578-5.466,7.921-5.466,13.039c0,5.292,1.892,9.768,5.673,13.443c3.782,3.681,8.448,5.509,13.979,5.509
			c3.614,0,6.646-0.747,9.116-2.266c2.479-1.516,4.477-3.885,5.994-7.116H806.57v-9.795h27.559l0.08,2.307
			c0,4.796-1.251,9.339-3.729,13.639c-2.48,4.294-5.694,7.57-9.642,9.824c-3.952,2.26-8.577,3.395-13.896,3.395
			c-5.688,0-10.76-1.23-15.212-3.704c-4.462-2.473-7.992-5.987-10.575-10.562c-2.607-4.57-3.898-9.497-3.898-14.79
			c0-7.247,2.402-13.554,7.188-18.921c5.682-6.378,13.086-9.572,22.202-9.572c4.766,0,9.227,0.883,13.366,2.646
			C823.521,424.138,826.937,426.699,830.299,430.319z"/>
	</g>
	<g>
		<path fill="#706F6F" d="M227.721,547.496C109.051,526.344,29.995,413.017,51.142,294.344
			c16.309-91.503,87.444-159.44,173.562-176.057c9.397-6.944,20.991-14.536,33.638-20.684
			C144.144,92.957,41.207,173.23,20.587,288.897C-1.915,415.155,82.192,535.745,208.463,558.251
			c79.156,14.117,156.086-13.697,208.019-67.523C367.883,536.899,298.761,560.159,227.721,547.496z"/>
		<path fill="#706F6F" d="M390.763,145.557c-2.151,1.186-4.363,2.372-6.581,3.556c33.483,21.587,60.242,51.882,77.629,87.144
			C446.152,200.691,421.716,169.405,390.763,145.557z"/>
	</g>
	<path fill="#194C76" d="M328.765,103.751c0,0,57.644-54.658,163.78-70.309c0,0,3.156-0.798,0.562,3.583
		c-2.616,4.378-44.466,70.684-171.379,123.347l29.496-5.961c0,0,0.265,17.975-16.932,38.394
		c-21.314,25.314-80.588,40.943-80.588,40.943s35.366-34.841,32.528-53.387c0,0-33.692,16.944-57.397,10.077
		c0,0,13.045-29.503,37.062-41.03c0,0-9.813-10.864-60.631-1.709c0,0,40.28-39.215,80.251-47.079
		c28.944-5.687,32.063,2.807,32.063,2.807l-17.995,25.121L328.765,103.751z"/>
</g>
</svg>
